<?xml version="1.0" standalone="no"?>
<!DOCTYPE svg PUBLIC "-//W3C//DTD SVG 20010904//EN"
 "http://www.w3.org/TR/2001/REC-SVG-20010904/DTD/svg10.dtd">
<svg version="1.0" xmlns="http://www.w3.org/2000/svg"
 width="600.000000pt" height="600.000000pt" viewBox="0 0 600.000000 600.000000"
 preserveAspectRatio="xMidYMid meet">

<g transform="translate(0.000000,600.000000) scale(0.100000,-0.100000)"
fill="#000000" stroke="none">
<path d="M336 3007 c-181 -584 -331 -1065 -333 -1069 -2 -5 1196 -8 2664 -8
l2668 0 320 1032 c176 568 325 1049 331 1070 l12 38 -2667 0 -2666 0 -329
-1063z m4984 866 c-1 -5 -204 -152 -452 -328 -248 -176 -462 -329 -474 -340
l-23 -20 264 -525 c145 -289 264 -528 264 -532 1 -12 -591 -10 -625 2 -26 9
-49 50 -207 365 l-177 355 -179 -128 -179 -127 -57 -185 c-32 -102 -64 -202
-73 -223 -24 -63 -41 -67 -297 -67 -210 0 -226 1 -245 20 -18 18 -18 22 -4 72
24 80 461 1491 490 1581 l26 77 196 0 c179 0 200 -2 230 -20 44 -27 72 -76 72
-126 0 -25 -43 -179 -105 -379 -58 -186 -104 -339 -102 -341 2 -2 275 190 607
427 333 236 618 434 635 438 37 11 415 14 415 4z m-2322 -33 c-18 -53 -104
-137 -176 -172 l-67 -33 -425 -5 -425 -5 -58 -28 c-83 -41 -170 -126 -206
-200 -17 -34 -76 -208 -132 -387 -114 -366 -127 -437 -91 -506 39 -77 95 -110
203 -120 161 -14 293 29 395 131 71 71 90 108 142 275 22 69 42 135 46 148 l7
22 -195 0 c-155 0 -196 3 -196 13 0 22 55 100 95 136 22 19 64 46 95 60 l55
26 345 3 c339 3 345 3 362 -18 13 -16 15 -27 7 -53 -51 -181 -305 -985 -313
-993 -15 -16 -128 -1 -188 25 -54 23 -118 78 -149 127 l-21 34 -46 -41 c-54
-47 -202 -121 -282 -141 -40 -9 -139 -13 -365 -13 -278 0 -316 2 -365 19 -59
20 -121 59 -157 97 -63 68 -97 217 -73 320 27 122 255 839 287 905 65 134 185
256 328 331 140 73 119 72 887 72 l687 1 -11 -30z"/>
</g>
</svg>
